<svg xmlns:cc="http://creativecommons.org/ns#" xmlns:dc="http://purl.org/dc/elements/1.1/" xmlns:inkscape="http://www.inkscape.org/namespaces/inkscape" xmlns:rdf="http://www.w3.org/1999/02/22-rdf-syntax-ns#" xmlns:sodipodi="http://sodipodi.sourceforge.net/DTD/sodipodi-0.dtd" xmlns:svg="http://www.w3.org/2000/svg" xmlns="http://www.w3.org/2000/svg" xmlns:xlink="http://www.w3.org/1999/xlink" id="svg8" x="0px" y="0px" viewBox="0 0 471.7 494.9" style="enable-background:new 0 0 471.7 494.9;" xml:space="preserve">
<style type="text/css">
	.st0{fill:#34A853;}
	.st1{fill:#FBBC04;}
	.st2{fill:#4285F4;}
	.st3{fill:#1A73E8;}
	.st4{fill:#EA4335;}
</style>
<g id="g842" transform="translate(-583.2646,52.894413)">
	<path id="path835" inkscape:connector-curvature="0" sodipodi:nodetypes="cccccccccccccccccccc" class="st0" d="M746,307.2   c14.4,18,29.1,40.7,36.8,54.4c9.4,17.8,13.2,29.8,20.2,51.3c4.1,11.8,7.9,15.4,16.1,15.4c8.9,0,13-6,16.1-15.4   c6.5-20.2,11.6-35.6,19.5-50.3c15.6-28.2,35.4-53.2,54.6-77.3c5.3-6.7,39-46.4,54.1-78c0,0,18.5-34.4,18.5-82.5   c0-45-18.3-76.3-18.3-76.3l-52.9,14.2l-32.2,84.7l-7.9,11.6l-1.7,2.2l-2.2,2.6l-3.6,4.3l-5.3,5.3l-28.6,23.3l-71.5,41.4L746,307.2z   "></path>
	<path id="path833" inkscape:connector-curvature="0" sodipodi:nodetypes="cccccccc" class="st1" d="M672.1,201.6   c17.6,39.9,51,74.8,73.9,105.6L867,163.8c0,0-17.1,22.4-47.9,22.4c-34.4,0-62.3-27.4-62.3-62.1c0-23.8,14.2-40.2,14.2-40.2   l-82.1,21.9L672.1,201.6z"></path>
	<path id="path831" inkscape:connector-curvature="0" sodipodi:nodetypes="cccccccc" class="st2" d="M868.5-31.6   c40.2,13,74.6,40.2,95.3,80.4L867,164c0,0,14.2-16.6,14.2-40.2c0-35.4-29.8-62.1-62.1-62.1c-30.6,0-48.1,22.1-48.1,22.1V11.2   L868.5-31.6z"></path>
	<path id="path829" inkscape:connector-curvature="0" sodipodi:nodetypes="cccccc" class="st3" d="M694.2,19.1   c24.1-28.6,66.2-58.2,124.4-58.2c28.2,0,49.6,7.5,49.6,7.5L771,83.9h-68.8L694.2,19.1z"></path>
	<path id="path827" inkscape:connector-curvature="0" sodipodi:nodetypes="ccccc" class="st4" d="M672.1,201.6   c0,0-15.9-31.5-15.9-77c0-43.1,16.8-80.6,38.3-105.2l76.8,64.7L672.1,201.6z"></path>
</g>
</svg>